# xmcd CD database file
#
# Track frame offsets:
#	150
#	13730
#	25192
#	39801
#	51856
#	64705
#	76744
#	88069
#	98667
#	110446
#	121413
#	131704
#	145704
#	158023
#	171945
#	184729
#	197439
#	212754
#
# Disc length: 3030 seconds
#
# Revision: 0
# Processed by: cddbd v1.5.1PL0 Copyright (c) Steve Scherf et al.
# Submitted via: CDex 1.51
#
DISCID=e60bd412
DTITLE=Ray Charles - A Sentimental Blues
DYEAR=2005
DGENRE=Blues
TTITLE0=Baby Let Me Hold Your Hand
TTITLE1=Here I Am (All Alone Again)
TTITLE2=Funny (But I Still Love You)
TTITLE3=Can't You See My Darling?
TTITLE4=Don't Put All Your Dreams In One Basket
TTITLE5=I'm Glad For Your Sake
TTITLE6=Jack She's On The Ball
TTITLE7=All The Girls In Town (They're Crazy About Me)
TTITLE8=Roll With Me Baby
TTITLE9=A Sentimental Blues
TTITLE10=Sittin' On Top Of The World
TTITLE11=Come Back Baby
TTITLE12=It Should Jave Been Me
TTITLE13=Late In The Evening Blues
TTITLE14=I've Got A Woman
TTITLE15=The Snow Is Falling
TTITLE16=Sinner's Prayer
TTITLE17=Losing Hand
EXTD=YEAR: 2005
EXTT0=
EXTT1=
EXTT2=
EXTT3=
EXTT4=
EXTT5=
EXTT6=
EXTT7=
EXTT8=
EXTT9=
EXTT10=
EXTT11=
EXTT12=
EXTT13=
EXTT14=
EXTT15=
EXTT16=
EXTT17=
PLAYORDER=
